<svg xmlns="http://www.w3.org/2000/svg" width="1100" height="560" viewBox="0 0 1100 560">
<rect width="100%" height="100%" fill="#FFFFFF"/>
<text x="120" y="42" font-family="Arial,sans-serif" font-size="26" fill="#27302C">Query-specific memory removes temporary I/O</text>
<text x="25" y="265" transform="rotate(-90 25 265)" text-anchor="middle" font-family="Arial,sans-serif" font-size="18" fill="#27302C">Temporary blocks per workload</text>
<line x1="120" y1="460.0" x2="1030" y2="460.0" stroke="#D8D1C7" stroke-width="1"/>
<text x="108" y="465.0" text-anchor="end" font-family="Arial,sans-serif" font-size="15" fill="#27302C">0</text>
<line x1="120" y1="382.0" x2="1030" y2="382.0" stroke="#D8D1C7" stroke-width="1"/>
<text x="108" y="387.0" text-anchor="end" font-family="Arial,sans-serif" font-size="15" fill="#27302C">16,000</text>
<line x1="120" y1="304.0" x2="1030" y2="304.0" stroke="#D8D1C7" stroke-width="1"/>
<text x="108" y="309.0" text-anchor="end" font-family="Arial,sans-serif" font-size="15" fill="#27302C">32,000</text>
<line x1="120" y1="226.0" x2="1030" y2="226.0" stroke="#D8D1C7" stroke-width="1"/>
<text x="108" y="231.0" text-anchor="end" font-family="Arial,sans-serif" font-size="15" fill="#27302C">48,000</text>
<line x1="120" y1="148.0" x2="1030" y2="148.0" stroke="#D8D1C7" stroke-width="1"/>
<text x="108" y="153.0" text-anchor="end" font-family="Arial,sans-serif" font-size="15" fill="#27302C">64,000</text>
<line x1="120" y1="70.0" x2="1030" y2="70.0" stroke="#D8D1C7" stroke-width="1"/>
<text x="108" y="75.0" text-anchor="end" font-family="Arial,sans-serif" font-size="15" fill="#27302C">80,000</text>
<line x1="120" y1="70" x2="120" y2="460" stroke="#27302C" stroke-width="2"/>
<line x1="120" y1="460" x2="1030" y2="460" stroke="#27302C" stroke-width="2"/>
<rect x="285.5" y="123.6" width="62" height="336.4" fill="#8A9199"/><text x="316.5" y="113.6" text-anchor="middle" font-family="Arial,sans-serif" font-size="14" fill="#27302C">69,000</text>
<rect x="740.5" y="460.0" width="62" height="0.0" fill="#8A9199"/><text x="771.5" y="450.0" text-anchor="middle" font-family="Arial,sans-serif" font-size="14" fill="#27302C">0</text>
<rect x="347.5" y="121.7" width="62" height="338.3" fill="#B7A99A"/><text x="378.5" y="111.7" text-anchor="middle" font-family="Arial,sans-serif" font-size="14" fill="#27302C">69,400</text>
<rect x="802.5" y="460.0" width="62" height="0.0" fill="#B7A99A"/><text x="833.5" y="450.0" text-anchor="middle" font-family="Arial,sans-serif" font-size="14" fill="#27302C">0</text>
<text x="347.5" y="494" text-anchor="middle" font-family="Arial,sans-serif" font-size="14" fill="#27302C">Inherited work_mem</text>
<text x="802.5" y="494" text-anchor="middle" font-family="Arial,sans-serif" font-size="14" fill="#27302C">query_work_mem = 64 MB</text>
<rect x="120" y="515" width="18" height="18" fill="#8A9199"/><text x="148" y="530" font-family="Arial,sans-serif" font-size="15" fill="#27302C">Read blocks</text>
<rect x="340" y="515" width="18" height="18" fill="#B7A99A"/><text x="368" y="530" font-family="Arial,sans-serif" font-size="15" fill="#27302C">Written blocks</text>
</svg>